<svg xmlns="http://www.w3.org/2000/svg" viewBox="0 0 180 180">
  <rect width="180" height="180" rx="40" fill="#0a0a0b"/>
  <g transform="translate(58 58) scale(1)">
    <circle cx="32" cy="32" r="30" fill="#fbbf24"/>
    <path d="M32 4 C20 4 10 14 8 24 C14 26 18 32 18 40 C18 44 16 48 12 50 C16 56 24 60 32 60 C40 60 48 56 52 50 C48 48 46 44 46 40 C46 32 50 26 56 24 C54 14 44 4 32 4 Z" fill="#f59e0b" opacity="0.5"/>
    <path d="M22 8 C18 16 18 48 22 56" stroke="#fff" stroke-width="2.5" fill="none" opacity="0.7"/>
    <path d="M42 8 C46 16 46 48 42 56" stroke="#fff" stroke-width="2.5" fill="none" opacity="0.7"/>
    <circle cx="32" cy="32" r="30" fill="none" stroke="#0a0a0b" stroke-width="1" opacity="0.15"/>
  </g>
</svg>